<?xml version="1.0" encoding="utf-8"?>
<!-- Generator: Adobe Illustrator 19.1.0, SVG Export Plug-In . SVG Version: 6.00 Build 0)  -->
<!DOCTYPE svg PUBLIC "-//W3C//DTD SVG 1.1//EN" "http://www.w3.org/Graphics/SVG/1.1/DTD/svg11.dtd">
<svg version="1.1" id="Layer_1" xmlns="http://www.w3.org/2000/svg" xmlns:xlink="http://www.w3.org/1999/xlink" x="0px" y="0px"
   viewBox="0 0 212.9 35.5" enable-background="new 0 0 212.9 35.5" xml:space="preserve" style="fill:#FFFFFF;">
<g>
  <g>
    <path d="M61.8,12.1l-1.2-8.9l-3.2,8.9h-1.6l-3.3-8.9l-1.2,8.9h-1.8l1.7-11.8h2l3.4,9.2L60,0.2h2l1.7,11.8H61.8z"/>
    <path d="M66.3,12.1l0-11.8h6.9v1.5h-5.1v3.5h4.8v1.4h-4.8v3.9h5.4v1.5H66.3z"/>
    <path d="M82.7,12.1l-2.2-4.3c-0.3-0.7-0.8-1-1.5-1h-1.1v5.3H76V0.2h3.3c1.7,0,2.6,0.2,3.4,0.7
      c0.7,0.5,1.2,1.4,1.2,2.3c0,1.5-1,2.7-2.7,3c0.6,0.2,0.8,0.4,1.2,1l2.6,4.9H82.7z M79.4,5.4c1.6,0,2.6-0.7,2.6-2
      c0-0.7-0.3-1.2-0.8-1.5c-0.4-0.2-0.8-0.3-1.7-0.3h-1.5v3.8H79.4z"/>
    <path d="M96.6,11.1c-1.4,0.9-2.6,1.2-4.2,1.2c-3.7,0-6.2-2.5-6.2-6C86.2,2.6,89,0,93,0c1.2,0,2,0.2,3.4,0.7
      l-0.5,1.4c-1.3-0.4-2-0.5-2.9-0.5c-2.9,0-4.9,1.9-4.9,4.6c0,2.7,1.8,4.6,4.5,4.6c1.2,0,2.1-0.2,3.4-0.9L96.6,11.1z"/>
    <path d="M107.6,12.1l-1.6-3.9h-4.8l-1.6,3.9h-1.8l4.9-11.8h2l4.9,11.8H107.6z M103.7,2.1l-1.8,4.7h3.7L103.7,2.1z"
      />
    <path d="M114.8,1.7v10.4H113V1.7h-3.8V0.2h9.4v1.5H114.8z"/>
    <path d="M130.3,7.3c0,1.7-0.4,2.8-1.2,3.6c-0.9,0.9-2.3,1.4-3.7,1.4c-1.7,0-3.2-0.6-3.9-1.5
      c-0.6-0.8-0.8-1.6-0.8-3.4V0.2h1.9v7.2c0,1.3,0.2,1.9,0.6,2.5c0.5,0.5,1.3,0.8,2.2,0.8c1.2,0,2.2-0.4,2.7-1.1
      c0.4-0.6,0.6-1.2,0.6-2.4V0.2h1.7V7.3z"/>
    <path d="M139.8,1.8c-1-0.2-1.4-0.2-2.1-0.2c-1.9,0-3,0.6-3,1.6c0,0.7,0.4,1.1,2.2,1.8c1.6,0.7,2.3,1.1,2.9,1.6
      c0.5,0.5,0.8,1.3,0.8,2.1c0,2.2-2,3.7-5.2,3.7c-1,0-1.6-0.1-2.9-0.4l0.3-1.5c1.2,0.2,1.7,0.3,2.4,0.3c2.1,0,3.3-0.7,3.3-2
      c0-0.9-0.5-1.3-2.5-2.1c-1.5-0.6-2-0.9-2.5-1.5c-0.5-0.5-0.8-1.2-0.8-1.9c0-2,1.8-3.2,4.7-3.2c0.9,0,1.4,0.1,2.5,0.4L139.8,1.8z"
      />
    <path d="M157.6,11.1c-1.4,0.9-2.6,1.2-4.2,1.2c-3.7,0-6.2-2.5-6.2-6c0-3.7,2.8-6.3,6.8-6.3c1.2,0,1.9,0.2,3.4,0.7
      l-0.5,1.4c-1.3-0.4-2-0.5-2.9-0.5c-2.9,0-4.9,1.9-4.9,4.6c0,2.7,1.8,4.6,4.4,4.6c1.2,0,2.1-0.2,3.4-0.9L157.6,11.1z"/>
    <path d="M159.8,12.1l0-11.8h6.9v1.5h-5.1v3.5h4.8v1.4h-4.8v3.9h5.4v1.5H159.8z"/>
    <path d="M177.2,12.1l-5.9-8.7v8.7h-1.7V0.2h1.8l6,8.8V0.2h1.7v11.8H177.2z"/>
    <path d="M186.8,1.7v10.4h-1.9V1.7h-3.8V0.2h9.4v1.5H186.8z"/>
    <path d="M192.6,12.1l0-11.8h6.9v1.5h-5.1v3.5h4.8v1.4h-4.8v3.9h5.4v1.5H192.6z"/>
    <path d="M209,12.1l-2.2-4.3c-0.3-0.7-0.8-1-1.5-1h-1.1v5.3h-1.9V0.2h3.3c1.7,0,2.6,0.2,3.4,0.7
      c0.7,0.5,1.2,1.4,1.2,2.3c0,1.5-1,2.7-2.7,3c0.6,0.2,0.8,0.4,1.2,1l2.6,4.9H209z M205.7,5.4c1.6,0,2.6-0.7,2.6-2
      c0-0.7-0.3-1.2-0.8-1.5c-0.4-0.2-0.8-0.3-1.7-0.3h-1.5v3.8H205.7z"/>
    <path d="M57.1,31.3c-0.6,0.3-0.9,0.4-1.3,0.5c-0.6,0.2-1.6,0.3-2.1,0.3c-3.2,0-5.4-2.1-5.4-5.2
      c0-3.2,2.4-5.5,5.8-5.5c1,0,1.7,0.2,2.9,0.6l-0.3,0.9c-0.1,0-0.1,0-0.2-0.1c-0.1,0-0.2-0.1-0.2-0.1l-0.1,0
      c-0.4-0.2-1.3-0.3-1.9-0.3c-2.8,0-4.6,1.7-4.6,4.4c0,2.5,1.8,4.4,4.2,4.4c0.7,0,1.2-0.1,2.2-0.4v-3.8h1.2V31.3z"/>
    <path d="M65.4,30.6c-0.2,0.2-0.2,0.2-0.4,0.3L65,31c-1,0.7-1.8,1-2.7,1c-1.9,0-3.1-1.4-3.1-3.6
      c0-2.3,1.4-3.9,3.4-3.9c1.8,0,2.8,1.2,2.8,3.4v0.3h-5v0.2c0,1.7,0.7,2.6,2,2.6c0.8,0,1.4-0.2,2.5-1L65.4,30.6z M64.2,27.2
      c-0.1-0.7-0.2-1.1-0.5-1.4c-0.3-0.3-0.7-0.5-1.2-0.5c-1,0-1.8,0.7-2,2L64.2,27.2z"/>
    <path d="M73.6,28.1c0,2.3-1.4,3.9-3.4,3.9c-2,0-3.2-1.5-3.2-3.9c0-2.1,1.5-3.7,3.4-3.7
      C72.3,24.4,73.6,25.9,73.6,28.1z M68.1,28c0,1.8,0.9,2.9,2.2,2.9c1.3,0,2.1-1.1,2.1-2.7c0-1.8-0.8-2.9-2.2-2.9
      C69,25.3,68.1,26.4,68.1,28z"/>
    <path d="M79.2,25.6c-0.2-0.1-0.3-0.1-0.5-0.1c-0.7,0-1.4,0.7-2,2v4.4h-1v-7.2h1V26c0.5-0.9,1.3-1.5,2.1-1.5
      c0.2,0,0.4,0,0.7,0.1L79.2,25.6z"/>
    <path d="M82,30.4c0.1,0,0.1,0,0.2,0.1c0.4,0.2,0.8,0.2,1.6,0.4l1.1,0.1c1.9,0.3,2.7,0.8,2.7,1.9
      c0,1.5-1.7,2.5-4,2.5c-2.2,0-3.5-0.8-3.5-2.1c0-0.9,0.6-1.6,1.7-2c-0.8-0.3-1-0.4-1-0.5c0-0.1,0.1-0.3,0.3-0.6l0.1-0.1l0.3-0.4
      c0.1-0.1,0.1-0.2,0.2-0.3c0-0.1,0.1-0.1,0.1-0.2c-0.6-0.6-0.9-1.2-0.9-2.1c0-1.6,1.2-2.9,2.9-2.9c0.4,0,0.7,0,1.1,0.2h2.3v0.8
      h-1.3c0.4,0.5,0.6,1,0.6,1.6c0,1.6-1.3,2.9-3,2.9c-0.4,0-0.6,0-0.9-0.2L82,30.4z M81.2,33.2c0,0.8,0.9,1.3,2.4,1.3
      c1.7,0,2.9-0.6,2.9-1.5c0-0.4-0.3-0.7-0.8-0.8c-0.2-0.1-0.3-0.1-1.7-0.3c-0.4,0-0.6-0.1-1-0.2C81.7,32,81.2,32.5,81.2,33.2z
       M82,27.1c0,1.1,0.7,1.9,1.7,1.9c1,0,1.7-0.7,1.7-1.9c0-1.1-0.7-1.9-1.7-1.9C82.6,25.2,82,26,82,27.1z"/>
    <path d="M94.6,30.6c-0.2,0.2-0.2,0.2-0.4,0.3l-0.1,0c-1,0.7-1.8,1-2.7,1c-1.9,0-3.1-1.4-3.1-3.6
      c0-2.3,1.4-3.9,3.4-3.9c1.8,0,2.8,1.2,2.8,3.4v0.3h-5v0.2c0,1.7,0.7,2.6,2,2.6c0.8,0,1.4-0.2,2.5-1L94.6,30.6z M93.3,27.2
      c-0.1-0.7-0.2-1.1-0.5-1.4c-0.3-0.3-0.7-0.5-1.2-0.5c-1,0-1.8,0.7-2,2L93.3,27.2z"/>
    <path d="M110.7,31.8l-1.2-8.5l-3.2,8.5h-1l-3.2-8.5l-1.2,8.5h-1.1l1.6-10.3h1.3l3.2,8.6l3.2-8.6h1.3l1.5,10.3
      H110.7z"/>
    <path d="M119.8,31.7c-0.4,0.2-0.6,0.2-0.9,0.2c-0.7,0-1.1-0.4-1.2-1.2c-1,0.9-1.6,1.2-2.4,1.2
      c-1,0-1.7-0.7-1.7-1.7c0-0.7,0.4-1.3,1-1.8c0.7-0.5,1.4-0.8,3-1.2v-0.3c0-1.2-0.2-1.6-1-1.6c-0.6,0-1.3,0.3-2.3,1.1l-0.6-0.7
      c1-0.9,2.1-1.4,3-1.4c0.7,0,1.3,0.3,1.6,0.7c0.2,0.4,0.3,0.8,0.3,1.7v3.5c0,0.5,0.2,0.8,0.6,0.8c0.1,0,0.2,0,0.4-0.1L119.8,31.7z
       M117.7,28.1c-1.2,0.4-1.7,0.5-2.2,0.9c-0.5,0.3-0.7,0.7-0.7,1.1c0,0.4,0.3,0.8,0.8,0.8c0.6,0,1.3-0.4,2.1-1.3V28.1z"/>
    <path d="M125.6,25.4c-0.7-0.1-1-0.2-1.5-0.2c-1,0-1.7,0.4-1.7,1c0,0.4,0.2,0.6,1.2,1.1l0.5,0.2
      c1,0.5,1.2,0.7,1.5,1c0.3,0.3,0.4,0.8,0.4,1.2c0,1.3-1.2,2.3-3.1,2.3c-0.7,0-1.1-0.1-2-0.3l0.2-0.8l0.2,0l0.2,0.1
      c0.3,0.1,0.8,0.1,1.1,0.1c1.3,0,2.1-0.5,2.1-1.2c0-0.5-0.4-0.9-1-1.2l-1.2-0.6c-1-0.5-1.4-1-1.4-1.7c0-1.2,1.1-2,2.6-2
      c0.6,0,1.1,0.1,1.8,0.2L125.6,25.4z"/>
    <path d="M134.3,28.1c0,2.3-1.4,3.9-3.4,3.9c-2,0-3.2-1.5-3.2-3.9c0-2.1,1.5-3.7,3.4-3.7
      C133,24.4,134.3,25.9,134.3,28.1z M128.8,28c0,1.8,0.9,2.9,2.2,2.9c1.3,0,2.1-1.1,2.1-2.7c0-1.8-0.8-2.9-2.2-2.9
      C129.7,25.3,128.8,26.4,128.8,28z"/>
    <path d="M141.1,31.8v-4.3c0-1,0-1.3-0.2-1.6c-0.1-0.3-0.5-0.5-0.9-0.5c-0.8,0-1.6,0.4-2.5,1.4v5h-1.1v-7.2h1.1v1.1
      c1-0.9,1.8-1.3,2.7-1.3c0.8,0,1.4,0.3,1.7,0.8c0.3,0.4,0.3,0.8,0.3,1.8v4.8H141.1z"/>
    <path d="M156.5,28c0,2.5-1.6,4-4.1,4c-1.4,0-2.5-0.4-3.1-1.2c-0.5-0.7-0.7-1.4-0.7-2.7v-6.6h1.2v6.6
      c0,1.1,0.2,1.6,0.6,2.1c0.5,0.5,1.2,0.8,2,0.8c1.1,0,2.1-0.4,2.6-1c0.4-0.5,0.5-1,0.5-2.2v-6.3h1.1V28z"/>
    <path d="M163.9,31.8v-4.3c0-1,0-1.3-0.2-1.6c-0.1-0.3-0.5-0.5-0.9-0.5c-0.8,0-1.6,0.4-2.5,1.4v5h-1.1v-7.2h1.1v1.1
      c1-0.9,1.8-1.3,2.7-1.3c0.8,0,1.4,0.3,1.7,0.8c0.3,0.4,0.3,0.8,0.3,1.8v4.8H163.9z"/>
    <path d="M168.6,22.1c0,0.4-0.3,0.7-0.7,0.7c-0.4,0-0.7-0.3-0.7-0.7s0.3-0.7,0.7-0.7
      C168.3,21.4,168.6,21.7,168.6,22.1z M167.4,31.8v-7.2h1.1v7.2H167.4z"/>
    <path d="M174,31.8h-1l-2.9-7.2h1.2l2.3,5.8l2.4-5.8h1.1L174,31.8z"/>
    <path d="M184.2,30.6c-0.2,0.2-0.2,0.2-0.4,0.3l-0.1,0c-1,0.7-1.8,1-2.7,1c-1.9,0-3.1-1.4-3.1-3.6
      c0-2.3,1.4-3.9,3.4-3.9c1.8,0,2.8,1.2,2.8,3.4v0.3h-5v0.2c0,1.7,0.7,2.6,2,2.6c0.8,0,1.4-0.2,2.5-1L184.2,30.6z M183,27.2
      c-0.1-0.7-0.2-1.1-0.5-1.4c-0.3-0.3-0.7-0.5-1.2-0.5c-1,0-1.8,0.7-2,2L183,27.2z"/>
    <path d="M189.7,25.6c-0.2-0.1-0.3-0.1-0.5-0.1c-0.7,0-1.4,0.7-2,2v4.4h-1v-7.2h1V26c0.5-0.9,1.3-1.5,2.1-1.5
      c0.2,0,0.4,0,0.7,0.1L189.7,25.6z"/>
    <path d="M195.5,25.4c-0.7-0.1-1-0.2-1.5-0.2c-1,0-1.7,0.4-1.7,1c0,0.4,0.2,0.6,1.2,1.1l0.5,0.2
      c1,0.5,1.2,0.7,1.5,1c0.3,0.3,0.4,0.8,0.4,1.2c0,1.3-1.2,2.3-3.1,2.3c-0.7,0-1.1-0.1-2-0.3l0.2-0.8l0.2,0l0.2,0.1
      c0.3,0.1,0.8,0.1,1.1,0.1c1.3,0,2.1-0.5,2.1-1.2c0-0.5-0.4-0.9-1-1.2l-1.2-0.6c-1-0.5-1.4-1-1.4-1.7c0-1.2,1.1-2,2.6-2
      c0.6,0,1.1,0.1,1.8,0.2L195.5,25.4z"/>
    <path d="M199.2,22.1c0,0.4-0.3,0.7-0.7,0.7c-0.4,0-0.7-0.3-0.7-0.7s0.3-0.7,0.7-0.7
      C198.9,21.4,199.2,21.7,199.2,22.1z M197.9,31.8v-7.2h1.1v7.2H197.9z"/>
    <path d="M204.6,31.8c-0.6,0.1-0.8,0.1-1,0.1c-1.3,0-1.9-0.5-1.9-1.7v-4.8h-1.2v-0.8h1.2v-2h1.1v2h1.8v0.8h-1.8v4.3
      c0,0.7,0,0.9,0.2,1.1c0.1,0.2,0.5,0.3,0.9,0.3c0.2,0,0.4,0,0.7-0.1V31.8z"/>
    <path d="M209.1,33.4l-0.1,0.2c-0.6,1.4-1.1,1.8-2.1,1.8c-0.4,0-0.6,0-1-0.2l0.2-0.8c0.4,0.1,0.5,0.1,0.7,0.1
      c0.6,0,0.9-0.3,1.2-1l0.8-1.9l-2.9-7.1h1.2l2.3,5.9l2.4-5.9h1.1L209.1,33.4z"/>
  </g>
  <polygon points="48.6,17.8 48.6,17 212.3,17 212.3,17.8 48.6,17.8   "/>
  <g>
    <path d="M27.9,0.2H15.4c-0.1,0-0.1,0-0.1,0.1c0,0,0,0,0,0.1l6.3,14.3c0,0.1,0.1,0.1,0.1,0.1c0,0,0,0,0.1-0.1
      L28,0.4l0,0c0,0,0-0.1,0-0.1C28,0.2,28,0.2,27.9,0.2z"/>
    <path d="M21.7,18.6C21.7,18.5,21.6,18.5,21.7,18.6c-0.1-0.1-0.1-0.1-0.1,0l-5.8,13.2c0,0,0,0.1,0,0.1
      c0,0.1,0,0.1,0.1,0.1h11.5c0.1,0,0.1,0,0.1-0.1c0,0,0,0,0-0.1L21.7,18.6z"/>
    <path d="M29.8,3.2v28.6c0,0.1,0.1,0.2,0.2,0.2h12.2c0.1,0,0.1,0,0.1-0.1c0,0,0,0,0-0.1L29.8,3.2z"/>
    <path d="M0.9,31.8c0,0.1,0,0.1,0.1,0.1h12.2c0.1,0,0.2-0.1,0.2-0.2V3.2L0.9,31.8C0.9,31.8,0.9,31.8,0.9,31.8z"/>
    <path d="M43,0.2H30.3c-0.1,0-0.1,0-0.1,0.1c0,0,0,0,0,0.1l13,29.7V0.4C43.3,0.3,43.2,0.2,43,0.2z"/>
    <path d="M12.9,0.2H0.2C0.1,0.2,0,0.3,0,0.4V30L13.1,0.4c0,0,0-0.1,0-0.1C13.1,0.2,13,0.2,12.9,0.2z"/>
    <path d="M22.5,16.6c0,0.1,0,0.2,0,0.3L28.4,30V3.2l-5.8,13.2C22.5,16.4,22.5,16.5,22.5,16.6z"/>
    <path d="M14.9,3.2V30l5.8-13.2c0-0.1,0-0.2,0-0.3c0-0.1,0-0.2,0-0.3L14.9,3.2z"/>
  </g>
</g>
</svg>
